<svg width="115" height="98" viewBox="0 0 115 98" fill="none" xmlns="http://www.w3.org/2000/svg">
<path opacity="0.5" d="M4.07527 98C0.617465 98 -0.639918 96.2472 0.303119 92.7415L30.4803 3.8244C31.4233 1.2748 33.3094 0 36.1385 0H52.6417C54.2134 0 55.3136 0.478052 55.9423 1.43416C56.8853 2.39026 57.1997 3.66506 56.8853 5.25855L32.8379 93.6976C32.2092 96.5659 30.4803 98 27.6512 98H4.07527ZM62.5436 98C59.0858 98 57.8284 96.2472 58.7714 92.7415L88.4771 3.8244C89.4201 1.2748 91.3062 0 94.1353 0H110.638C112.21 0 113.31 0.478052 113.939 1.43416C114.882 2.39026 115.196 3.66506 114.882 5.25855L91.3062 93.6976C90.6775 96.5659 88.9486 98 86.1195 98H62.5436Z" fill="#F1EDEA"/>
</svg>
